<svg width="7" height="157" viewBox="0 0 7 157" fill="none" xmlns="http://www.w3.org/2000/svg">
<path d="M2.37998 146.309C2.37998 146.122 2.44531 145.963 2.57598 145.833C2.70664 145.702 2.86531 145.637 3.05198 145.637C3.23864 145.637 3.39731 145.702 3.52798 145.833C3.65864 145.963 3.72398 146.122 3.72398 146.309L3.72398 153.561C3.72398 153.747 3.65864 153.906 3.52798 154.037C3.39731 154.167 3.23864 154.233 3.05198 154.233C2.86531 154.233 2.70664 154.167 2.57598 154.037C2.44531 153.906 2.37998 153.747 2.37998 153.561L2.37998 146.309ZM3.05198 156.585C2.69731 156.585 2.34264 156.529 1.98798 156.417C1.62398 156.295 1.29731 156.123 1.00798 155.899C0.70931 155.675 0.466643 155.404 0.279976 155.087C0.0933096 154.769 -2.36105e-05 154.41 -2.3628e-05 154.009L-2.39787e-05 145.987C-2.39869e-05 145.8 0.0653092 145.641 0.195976 145.511C0.326642 145.38 0.485309 145.315 0.671976 145.315C0.858642 145.315 1.01731 145.38 1.14798 145.511C1.27864 145.641 1.34398 145.8 1.34398 145.987L1.34398 153.715C1.34398 154.023 1.39531 154.275 1.49798 154.471C1.60064 154.667 1.73598 154.821 1.90398 154.933C2.06264 155.045 2.23531 155.124 2.42198 155.171C2.60864 155.208 2.78598 155.231 2.95398 155.241L5.43198 155.241C5.61864 155.241 5.77731 155.306 5.90798 155.437C6.03864 155.567 6.10398 155.726 6.10398 155.913C6.10398 156.099 6.03864 156.258 5.90798 156.389C5.77731 156.519 5.61864 156.585 5.43198 156.585L3.05198 156.585ZM4.75998 129.239C4.75998 128.922 4.70398 128.66 4.59198 128.455C4.47064 128.25 4.32598 128.091 4.15798 127.979C3.98998 127.858 3.80798 127.778 3.61198 127.741C3.40664 127.694 3.21998 127.671 3.05198 127.671C2.88398 127.671 2.70198 127.694 2.50598 127.741C2.30064 127.778 2.11397 127.858 1.94598 127.979C1.77798 128.091 1.63798 128.25 1.52598 128.455C1.40464 128.66 1.34398 128.922 1.34398 129.239L1.34398 134.895C1.34398 135.222 1.40464 135.488 1.52598 135.693C1.63798 135.889 1.77798 136.048 1.94598 136.169C2.11398 136.281 2.30064 136.36 2.50598 136.407C2.70198 136.444 2.88398 136.463 3.05198 136.463C3.21998 136.463 3.40664 136.444 3.61198 136.407C3.80798 136.36 3.98998 136.281 4.15798 136.169C4.32598 136.048 4.47064 135.889 4.59198 135.693C4.70398 135.488 4.75998 135.222 4.75998 134.895L4.75998 129.239ZM3.05198 126.369C3.40664 126.369 3.76597 126.43 4.12997 126.551C4.48464 126.663 4.81131 126.831 5.10998 127.055C5.39931 127.279 5.63731 127.55 5.82398 127.867C6.01064 128.184 6.10398 128.544 6.10398 128.945L6.10398 135.329C6.08531 135.712 5.98264 136.052 5.79598 136.351C5.59998 136.65 5.35731 136.906 5.06798 137.121C4.77864 137.326 4.45664 137.485 4.10198 137.597C3.74731 137.709 3.39731 137.765 3.05198 137.765C2.69731 137.765 2.34264 137.709 1.98798 137.597C1.62398 137.476 1.29731 137.303 1.00798 137.079C0.709309 136.855 0.466642 136.584 0.279975 136.267C0.0933088 135.95 -2.44331e-05 135.59 -2.44507e-05 135.189L-2.47297e-05 128.805C0.0186417 128.422 0.125975 128.082 0.321975 127.783C0.508642 127.484 0.746642 127.232 1.03597 127.027C1.32531 126.812 1.64731 126.649 2.00197 126.537C2.35664 126.425 2.70664 126.369 3.05198 126.369ZM6.10397 116.89C6.10397 117.151 6.05731 117.399 5.96397 117.632C5.86131 117.865 5.72597 118.071 5.55797 118.248C5.38997 118.416 5.19397 118.551 4.96997 118.654C4.74597 118.757 4.50331 118.808 4.24197 118.808L0.671975 118.808C0.485308 118.808 0.326641 118.743 0.195974 118.612C0.065308 118.481 -2.51879e-05 118.323 -2.51961e-05 118.136C-2.52038e-05 117.959 0.065308 117.805 0.195974 117.674C0.326641 117.534 0.485308 117.464 0.671974 117.464L4.24197 117.464C4.38197 117.464 4.50331 117.413 4.60597 117.31C4.70864 117.198 4.75997 117.072 4.75997 116.932L4.75997 108.532C4.75997 108.345 4.82531 108.187 4.95597 108.056C5.08664 107.925 5.24531 107.86 5.43197 107.86C5.61864 107.86 5.77731 107.925 5.90797 108.056C6.03864 108.187 6.10397 108.345 6.10397 108.532L6.10397 116.89ZM6.10397 98.3844C6.10397 98.6458 6.05731 98.8931 5.96397 99.1264C5.86131 99.3598 5.72597 99.5651 5.55797 99.7424C5.38997 99.9104 5.19397 100.046 4.96997 100.148C4.74597 100.251 4.50331 100.302 4.24197 100.302L0.671974 100.302C0.485307 100.302 0.32664 100.237 0.195974 100.106C0.0653072 99.9758 -2.59968e-05 99.8171 -2.6005e-05 99.6304C-2.60127e-05 99.4531 0.0653072 99.2991 0.195974 99.1684C0.32664 99.0284 0.485307 98.9584 0.671974 98.9584L4.24197 98.9584C4.38197 98.9584 4.50331 98.9071 4.60597 98.8044C4.70864 98.6924 4.75997 98.5664 4.75997 98.4264L4.75997 90.0264C4.75997 89.8398 4.82531 89.6811 4.95597 89.5504C5.08664 89.4198 5.24531 89.3544 5.43197 89.3544C5.61864 89.3544 5.77731 89.4198 5.90797 89.5504C6.03864 89.6811 6.10397 89.8398 6.10397 90.0264L6.10397 98.3844ZM4.75997 73.6262C4.75997 73.3089 4.70397 73.0475 4.59197 72.8422C4.47064 72.6369 4.32597 72.4782 4.15797 72.3662C3.98997 72.2449 3.80797 72.1655 3.61197 72.1282C3.40664 72.0815 3.21997 72.0582 3.05197 72.0582C2.88397 72.0582 2.70197 72.0815 2.50597 72.1282C2.30064 72.1655 2.11397 72.2449 1.94597 72.3662C1.77797 72.4782 1.63797 72.6369 1.52597 72.8422C1.40464 73.0475 1.34397 73.3089 1.34397 73.6262L1.34397 79.2822C1.34397 79.6089 1.40464 79.8749 1.52597 80.0802C1.63797 80.2762 1.77797 80.4349 1.94597 80.5562C2.11397 80.6682 2.30064 80.7475 2.50597 80.7942C2.70197 80.8315 2.88397 80.8502 3.05197 80.8502C3.21997 80.8502 3.40664 80.8315 3.61197 80.7942C3.80797 80.7475 3.98997 80.6682 4.15797 80.5562C4.32597 80.4349 4.47064 80.2762 4.59197 80.0802C4.70397 79.8749 4.75997 79.6089 4.75997 79.2822L4.75997 73.6262ZM3.05197 70.7562C3.40664 70.7562 3.76597 70.8169 4.12997 70.9382C4.48464 71.0502 4.81131 71.2182 5.10997 71.4422C5.39931 71.6662 5.63731 71.9369 5.82397 72.2542C6.01064 72.5715 6.10397 72.9309 6.10397 73.3322L6.10397 79.7162C6.08531 80.0989 5.98264 80.4395 5.79597 80.7382C5.59997 81.0369 5.35731 81.2935 5.06797 81.5082C4.77864 81.7135 4.45664 81.8722 4.10197 81.9842C3.74731 82.0962 3.39731 82.1522 3.05197 82.1522C2.69731 82.1522 2.34264 82.0962 1.98797 81.9842C1.62397 81.8629 1.29731 81.6902 1.00797 81.4662C0.709306 81.2422 0.46664 80.9715 0.279973 80.6542C0.0933064 80.3369 -2.68641e-05 79.9775 -2.68816e-05 79.5762L-2.71606e-05 73.1922C0.0186392 72.8095 0.125972 72.4689 0.321972 72.1702C0.508639 71.8715 0.746639 71.6195 1.03597 71.4142C1.32531 71.1995 1.64731 71.0362 2.00197 70.9242C2.35664 70.8122 2.70664 70.7562 3.05197 70.7562ZM0.671972 63.1953C0.485305 63.1953 0.326639 63.13 0.195972 62.9993C0.0653056 62.8686 -2.76188e-05 62.71 -2.7627e-05 62.5233C-2.76352e-05 62.3366 0.0653055 62.178 0.195972 62.0473C0.326639 61.9166 0.485305 61.8513 0.671972 61.8513L3.05197 61.8513C3.21997 61.8513 3.40664 61.8326 3.61197 61.7953C3.80797 61.7486 3.98997 61.6693 4.15797 61.5573C4.32597 61.436 4.47064 61.2773 4.59197 61.0813C4.70397 60.876 4.75997 60.61 4.75997 60.2833L4.75997 57.0353C4.49864 57.1846 4.22331 57.2966 3.93397 57.3713C3.63531 57.446 3.34131 57.4833 3.05197 57.4833L0.671972 57.4833C0.485305 57.4833 0.326638 57.418 0.195972 57.2873C0.0653053 57.1566 -2.78685e-05 56.998 -2.78767e-05 56.8113C-2.78848e-05 56.6246 0.0653053 56.466 0.195972 56.3353C0.326638 56.2046 0.485305 56.1393 0.671972 56.1393L3.05197 56.1393C3.21997 56.1393 3.40197 56.1206 3.59797 56.0833C3.79397 56.0366 3.98064 55.962 4.15797 55.8593C4.32597 55.7473 4.47064 55.598 4.59197 55.4113C4.70397 55.2153 4.75997 54.968 4.75997 54.6693L4.75997 53.3393C4.75997 53.022 4.70397 52.7606 4.59197 52.5553C4.47064 52.35 4.32597 52.1913 4.15797 52.0793C3.98997 51.958 3.80797 51.8786 3.61197 51.8413C3.40664 51.7946 3.21997 51.7713 3.05197 51.7713L0.671972 51.7713C0.485305 51.7713 0.326638 51.706 0.195971 51.5753C0.0653051 51.4446 -2.81182e-05 51.286 -2.81264e-05 51.0993C-2.81345e-05 50.9126 0.065305 50.754 0.195971 50.6233C0.326638 50.4926 0.485305 50.4273 0.671972 50.4273L3.05197 50.4273C3.40664 50.4273 3.76597 50.488 4.12997 50.6093C4.48464 50.7213 4.81131 50.8893 5.10997 51.1133C5.39931 51.3373 5.63731 51.608 5.82397 51.9253C6.01064 52.2426 6.10397 52.602 6.10397 53.0033L6.10397 60.7593C6.10397 61.142 6.01064 61.4826 5.82397 61.7813C5.63731 62.08 5.39931 62.3366 5.10997 62.5513C4.81131 62.7566 4.47997 62.9153 4.11597 63.0273C3.75197 63.1393 3.39731 63.1953 3.05197 63.1953L0.671972 63.1953ZM3.05197 29.0645C3.21997 29.0645 3.40664 29.0459 3.61197 29.0085C3.80797 28.9619 3.98997 28.8825 4.15797 28.7705C4.32597 28.6492 4.47064 28.4905 4.59197 28.2945C4.70397 28.0892 4.75997 27.8232 4.75997 27.4965L4.75997 21.9245C4.75997 21.6072 4.70397 21.3459 4.59197 21.1405C4.47064 20.9352 4.32597 20.7765 4.15797 20.6645C3.98997 20.5432 3.80797 20.4639 3.61197 20.4265C3.40664 20.3799 3.21997 20.3565 3.05197 20.3565L0.68597 20.3565C0.499304 20.3565 0.340637 20.2912 0.20997 20.1605C0.0793037 20.0299 0.0139703 19.8712 0.0139703 19.6845C0.0139703 19.4979 0.0793036 19.3392 0.20997 19.2085C0.340637 19.0779 0.499304 19.0125 0.68597 19.0125L3.05197 19.0125C3.40664 19.0125 3.76597 19.0732 4.12997 19.1945C4.48464 19.3065 4.8113 19.4745 5.10997 19.6985C5.3993 19.9225 5.6373 20.1932 5.82397 20.5105C6.01064 20.8279 6.10397 21.1872 6.10397 21.5885L6.10397 27.9725C6.0853 28.3552 5.98264 28.6959 5.79597 28.9945C5.59997 29.2932 5.3573 29.5499 5.06797 29.7645C4.77864 29.9699 4.45664 30.1285 4.10197 30.2405C3.7473 30.3525 3.3973 30.4085 3.05197 30.4085L0.685971 30.4085C0.499304 30.4085 0.340637 30.3432 0.209971 30.2125C0.0793041 30.0819 0.0139708 29.9232 0.0139708 29.7365C0.0139708 29.5499 0.0793041 29.3912 0.209971 29.2605C0.340637 29.1299 0.499304 29.0645 0.685971 29.0645L3.05197 29.0645ZM3.72397 9.58964C3.72397 9.85097 3.6773 10.0936 3.58397 10.3176C3.4813 10.5416 3.34597 10.7376 3.17797 10.9056C3.00997 11.0736 2.81397 11.209 2.58997 11.3116C2.36597 11.405 2.1233 11.4516 1.86197 11.4516C1.60064 11.4516 1.35797 11.405 1.13397 11.3116C0.90997 11.209 0.71397 11.0736 0.54597 10.9056C0.37797 10.7376 0.247303 10.5416 0.15397 10.3176C0.0513033 10.0936 -2.99294e-05 9.85097 -2.99408e-05 9.58964L-3.03123e-05 1.09164C-3.03204e-05 0.904974 0.0653029 0.746307 0.195969 0.615641C0.326636 0.484974 0.485303 0.419641 0.671969 0.419641C0.858636 0.419641 1.0173 0.484974 1.14797 0.615641C1.27864 0.746307 1.34397 0.904974 1.34397 1.09164L1.34397 9.61764C1.34397 9.75764 1.3953 9.88364 1.49797 9.99564C1.5913 10.0983 1.71264 10.1496 1.86197 10.1496C2.00197 10.1496 2.1233 10.0983 2.22597 9.99564C2.32864 9.88364 2.37997 9.75764 2.37997 9.61764L2.37997 1.87564C2.37997 1.61431 2.4313 1.37164 2.53397 1.14764C2.6273 0.914308 2.75797 0.713641 2.92597 0.545641C3.09397 0.377641 3.29464 0.246974 3.52797 0.153641C3.75197 0.0509743 3.99464 -0.000358925 4.25597 -0.000358937C4.5173 -0.000358948 4.75997 0.0509743 4.98397 0.153641C5.20797 0.246974 5.40397 0.377641 5.57197 0.545641C5.73997 0.713641 5.87064 0.914308 5.96397 1.14764C6.0573 1.37164 6.10397 1.61431 6.10397 1.87564L6.10397 10.3596C6.10397 10.5463 6.03864 10.705 5.90797 10.8356C5.7773 10.9663 5.61864 11.0316 5.43197 11.0316C5.2453 11.0316 5.08664 10.9663 4.95597 10.8356C4.8253 10.705 4.75997 10.5463 4.75997 10.3596L4.75997 1.81964C4.75997 1.67964 4.7133 1.55831 4.61997 1.45564C4.5173 1.35297 4.39597 1.30164 4.25597 1.30164C4.10664 1.30164 3.98064 1.35297 3.87797 1.45564C3.7753 1.55831 3.72397 1.67964 3.72397 1.81964L3.72397 9.58964Z" fill="black"/>
</svg>
