<svg width="25" height="23" viewBox="0 0 25 23" fill="none" xmlns="http://www.w3.org/2000/svg">
<path d="M12.5 22.0717C19.4036 22.0717 25 17.1307 25 11.0358C25 4.94091 19.4036 0 12.5 0C5.59644 0 0 4.94091 0 11.0358C0 17.1307 5.59644 22.0717 12.5 22.0717Z" fill="#680A0A"/>
<path d="M17.3928 9.2447C17.3853 8.88472 17.3084 8.52849 17.1656 8.19128C17.0387 7.90262 16.8451 7.64052 16.597 7.42172C16.3489 7.20293 16.0517 7.03227 15.7246 6.92065C15.3426 6.79465 14.9392 6.7268 14.5315 6.72C14.0042 6.69642 13.8371 6.69141 12.5013 6.69141C11.1656 6.69141 10.9985 6.69642 10.4741 6.71699C10.0663 6.72365 9.66285 6.7915 9.28089 6.91764C8.95192 7.02646 8.654 7.19769 8.40817 7.41927C8.15801 7.63611 7.96415 7.89832 7.83999 8.18776C7.69728 8.52503 7.62043 8.88122 7.61271 9.24118C7.58771 9.7082 7.58203 9.85568 7.58203 11.035C7.58203 12.2143 7.58771 12.3598 7.61101 12.8248C7.61853 13.1848 7.69538 13.541 7.83828 13.8782C7.9649 14.1667 8.1583 14.4288 8.40611 14.6475C8.65392 14.8663 8.9507 15.0371 9.27749 15.1489C9.65949 15.2749 10.0629 15.3427 10.4707 15.3495C10.9951 15.3701 11.1627 15.3751 12.4979 15.3751C13.8332 15.3751 14.0008 15.3701 14.5252 15.3495C14.933 15.3429 15.3364 15.275 15.7184 15.1489C16.0453 15.0372 16.3422 14.8665 16.59 14.6477C16.8378 14.4289 17.0312 14.1668 17.1576 13.8782C17.3003 13.541 17.3771 13.1848 17.3849 12.8248C17.4082 12.3618 17.4138 12.2138 17.4138 11.035C17.4138 9.85618 17.4138 9.7082 17.3888 9.2452L17.3928 9.2447ZM16.5065 12.7912C16.5029 13.0666 16.4452 13.3393 16.336 13.5973C16.254 13.7847 16.1286 13.9548 15.9677 14.0968C15.8068 14.2389 15.6141 14.3496 15.4019 14.422C15.1097 14.5183 14.8008 14.5692 14.4888 14.5725C13.9701 14.5931 13.8144 14.5981 12.5002 14.5981C11.186 14.5981 11.0298 14.5931 10.5116 14.5725C10.1996 14.5694 9.8907 14.5184 9.59851 14.422C9.38507 14.3528 9.19204 14.242 9.03374 14.098C8.87094 13.9579 8.74555 13.7876 8.66669 13.5993C8.55768 13.3413 8.50001 13.0686 8.49624 12.7932C8.47294 12.3352 8.46726 12.1978 8.46726 11.0375C8.46726 9.87725 8.47294 9.7393 8.49624 9.28182C8.49978 9.00643 8.55745 8.73367 8.66669 8.4757C8.74516 8.28682 8.87148 8.11627 9.03601 7.97708C9.1946 7.8333 9.38755 7.72259 9.60078 7.65303C9.89305 7.55681 10.2019 7.5059 10.5138 7.50254C11.0326 7.48197 11.1883 7.47696 12.5025 7.47696C13.8167 7.47696 13.9729 7.48197 14.4911 7.50254C14.803 7.5057 15.112 7.55662 15.4042 7.65303C15.6176 7.72219 15.8107 7.83296 15.969 7.97708C16.1318 8.11713 16.2572 8.28747 16.336 8.4757C16.445 8.73373 16.5027 9.00645 16.5065 9.28182C16.5298 9.7398 16.5354 9.87725 16.5354 11.0375C16.5354 12.1978 16.5298 12.3322 16.5065 12.7902V12.7912Z" fill="white"/>
<path d="M12.5038 8.80469C12.004 8.80469 11.5154 8.93555 11.0998 9.18072C10.6842 9.42589 10.3602 9.77437 10.1689 10.1821C9.97766 10.5898 9.92761 11.0384 10.0251 11.4712C10.1226 11.904 10.3633 12.3016 10.7168 12.6137C11.0702 12.9257 11.5205 13.1382 12.0108 13.2243C12.501 13.3104 13.0092 13.2662 13.471 13.0973C13.9328 12.9285 14.3275 12.6425 14.6052 12.2755C14.8829 11.9086 15.0311 11.4772 15.0311 11.0359C15.031 10.4442 14.7646 9.87676 14.2907 9.45835C13.8168 9.03994 13.1741 8.80482 12.5038 8.80469ZM12.5038 12.4831C12.1796 12.4831 11.8627 12.3983 11.5931 12.2392C11.3236 12.0802 11.1135 11.8542 10.9894 11.5898C10.8653 11.3253 10.8329 11.0343 10.8961 10.7536C10.9594 10.4729 11.1155 10.215 11.3447 10.0126C11.574 9.81021 11.8661 9.67238 12.184 9.61654C12.502 9.5607 12.8316 9.58936 13.1311 9.69889C13.4307 9.80843 13.6867 9.99392 13.8668 10.2319C14.0469 10.4699 14.143 10.7497 14.143 11.0359C14.1429 11.4197 13.9701 11.7877 13.6628 12.0591C13.3554 12.3305 12.9385 12.483 12.5038 12.4831Z" fill="white"/>
<path d="M15.7196 8.716C15.7196 8.81899 15.685 8.91966 15.6202 9.00528C15.5554 9.09091 15.4633 9.15765 15.3555 9.19706C15.2477 9.23647 15.1292 9.24678 15.0148 9.22669C14.9004 9.2066 14.7953 9.15701 14.7128 9.08419C14.6303 9.01137 14.5741 8.91859 14.5514 8.81759C14.5286 8.71658 14.5403 8.61189 14.5849 8.51674C14.6296 8.4216 14.7052 8.34028 14.8022 8.28306C14.8991 8.22585 15.0132 8.19531 15.1298 8.19531C15.2862 8.19531 15.4363 8.25017 15.5469 8.34782C15.6575 8.44547 15.7196 8.57791 15.7196 8.716Z" fill="white"/>
</svg>
