<svg width="33" height="31" viewBox="0 0 33 31" fill="none" xmlns="http://www.w3.org/2000/svg">
<g filter="url(#filter0_d_304_511)">
<path d="M16.5 22.0717C23.4036 22.0717 29 17.1307 29 11.0358C29 4.94091 23.4036 0 16.5 0C9.59644 0 4 4.94091 4 11.0358C4 17.1307 9.59644 22.0717 16.5 22.0717Z" fill="white"/>
<path d="M19.7272 7.04761C18.945 6.38466 17.8625 6.01953 16.6792 6.01953C14.8715 6.01953 13.7598 6.67371 13.1454 7.22247C12.3883 7.89876 11.9541 8.79672 11.9541 9.68618C11.9541 10.803 12.4832 11.6601 13.3692 11.979C13.4287 12.0005 13.4886 12.0114 13.5473 12.0114C13.7342 12.0114 13.8823 11.9034 13.9336 11.7302C13.9635 11.6308 14.0328 11.3857 14.0629 11.2792C14.1274 11.0691 14.0753 10.968 13.9347 10.8216C13.6784 10.5539 13.5591 10.2374 13.5591 9.82538C13.5591 8.60167 14.5911 7.3011 16.504 7.3011C18.0218 7.3011 18.9647 8.06271 18.9647 9.28869C18.9647 10.0623 18.7759 10.7788 18.4331 11.3062C18.1949 11.6727 17.7759 12.1095 17.1328 12.1095C16.8547 12.1095 16.6049 12.0086 16.4473 11.8328C16.2984 11.6666 16.2493 11.4519 16.3092 11.2281C16.3768 10.9752 16.4691 10.7115 16.5584 10.4565C16.7212 9.9908 16.8751 9.55096 16.8751 9.20003C16.8751 8.59979 16.4572 8.19648 15.8352 8.19648C15.0447 8.19648 14.4254 8.90532 14.4254 9.81021C14.4254 10.254 14.559 10.5859 14.6194 10.7134C14.5199 11.0859 13.928 13.3005 13.8158 13.7181C13.7508 13.9619 13.3598 15.8874 14.007 16.0409C14.7342 16.2134 15.3842 14.3381 15.4504 14.1262C15.504 13.9539 15.6916 13.3022 15.8066 12.9016C16.1577 13.2002 16.7229 13.402 17.2729 13.402C18.3097 13.402 19.2421 12.9901 19.8984 12.2422C20.535 11.5168 20.8855 10.5057 20.8855 9.39538C20.8855 8.52734 20.4633 7.6716 19.7272 7.04761Z" fill="black"/>
</g>
<defs>
<filter id="filter0_d_304_511" x="0" y="0" width="33" height="30.0723" filterUnits="userSpaceOnUse" color-interpolation-filters="sRGB">
<feFlood flood-opacity="0" result="BackgroundImageFix"/>
<feColorMatrix in="SourceAlpha" type="matrix" values="0 0 0 0 0 0 0 0 0 0 0 0 0 0 0 0 0 0 127 0" result="hardAlpha"/>
<feOffset dy="4"/>
<feGaussianBlur stdDeviation="2"/>
<feComposite in2="hardAlpha" operator="out"/>
<feColorMatrix type="matrix" values="0 0 0 0 0 0 0 0 0 0 0 0 0 0 0 0 0 0 0.05 0"/>
<feBlend mode="normal" in2="BackgroundImageFix" result="effect1_dropShadow_304_511"/>
<feBlend mode="normal" in="SourceGraphic" in2="effect1_dropShadow_304_511" result="shape"/>
</filter>
</defs>
</svg>
