<svg width="33" height="31" viewBox="0 0 33 31" fill="none" xmlns="http://www.w3.org/2000/svg">
<g filter="url(#filter0_d_304_500)">
<path d="M16.5 22.0717C23.4036 22.0717 29 17.1307 29 11.0358C29 4.94091 23.4036 0 16.5 0C9.59644 0 4 4.94091 4 11.0358C4 17.1307 9.59644 22.0717 16.5 22.0717Z" fill="white"/>
<path d="M22.3099 7.92779C21.8728 8.09609 21.4104 8.20793 20.9372 8.25987C21.436 7.99878 21.809 7.58524 21.9855 7.09759C21.5184 7.34213 21.0075 7.51433 20.4747 7.60674C20.148 7.29888 19.724 7.08485 19.2578 6.99246C18.7916 6.90008 18.3046 6.9336 17.8603 7.08868C17.4159 7.24376 17.0346 7.51322 16.7659 7.86208C16.4973 8.21093 16.3536 8.62306 16.3537 9.04491C16.3523 9.20614 16.3714 9.36698 16.4105 9.52447C15.4628 9.48339 14.5355 9.26618 13.6894 8.88706C12.8433 8.50793 12.0973 7.97542 11.5002 7.32433C11.1943 7.78683 11.0997 8.33494 11.2356 8.85692C11.3716 9.3789 11.728 9.83543 12.2321 10.1334C11.855 10.1246 11.486 10.0358 11.1559 9.87461V9.90069C11.1565 10.3864 11.3467 10.857 11.6943 11.2334C12.0419 11.6098 12.5257 11.869 13.0645 11.9674C12.8605 12.0148 12.6503 12.0381 12.4395 12.0366C12.288 12.0389 12.1368 12.0268 11.9883 12.0005C12.1428 12.417 12.4395 12.781 12.8377 13.0428C13.2358 13.3045 13.716 13.451 14.2122 13.4623C13.369 14.0454 12.3287 14.3621 11.2576 14.3617C11.0677 14.3627 10.878 14.3529 10.6895 14.3326C11.7787 14.9525 13.0481 15.2804 14.344 15.2766C15.2361 15.2822 16.1205 15.1312 16.9459 14.8324C17.7712 14.5336 18.5212 14.093 19.152 13.5361C19.7829 12.9793 20.2822 12.3173 20.6208 11.5887C20.9595 10.8601 21.1307 10.0793 21.1247 9.29172C21.1247 9.19891 21.1213 9.10912 21.1162 9.01983C21.586 8.72291 21.9905 8.35284 22.3099 7.92779Z" fill="black"/>
</g>
<defs>
<filter id="filter0_d_304_500" x="0" y="0" width="33" height="30.0723" filterUnits="userSpaceOnUse" color-interpolation-filters="sRGB">
<feFlood flood-opacity="0" result="BackgroundImageFix"/>
<feColorMatrix in="SourceAlpha" type="matrix" values="0 0 0 0 0 0 0 0 0 0 0 0 0 0 0 0 0 0 127 0" result="hardAlpha"/>
<feOffset dy="4"/>
<feGaussianBlur stdDeviation="2"/>
<feComposite in2="hardAlpha" operator="out"/>
<feColorMatrix type="matrix" values="0 0 0 0 0 0 0 0 0 0 0 0 0 0 0 0 0 0 0.05 0"/>
<feBlend mode="normal" in2="BackgroundImageFix" result="effect1_dropShadow_304_500"/>
<feBlend mode="normal" in="SourceGraphic" in2="effect1_dropShadow_304_500" result="shape"/>
</filter>
</defs>
</svg>
