<svg width="18" height="19" viewBox="0 0 18 19" fill="none" xmlns="http://www.w3.org/2000/svg">
<path d="M8.78906 0C5.88129 0 3.51562 2.1672 3.51562 4.83104C3.51562 7.49487 5.88129 9.66207 8.78906 9.66207C11.6968 9.66207 14.0625 7.49487 14.0625 4.83104C14.0625 2.1672 11.6968 0 8.78906 0Z" fill="#420808"/>
<path d="M15.3502 12.8189C13.9065 11.4759 11.9925 10.7363 9.96094 10.7363H7.61719C5.58563 10.7363 3.67164 11.4759 2.22789 12.8189C0.791211 14.1552 0 15.9192 0 17.7861C0 18.0825 0.262344 18.3228 0.585938 18.3228H16.9922C17.3158 18.3228 17.5781 18.0825 17.5781 17.7861C17.5781 15.9192 16.7869 14.1552 15.3502 12.8189Z" fill="#420808"/>
</svg>
