<svg width="23" height="19" viewBox="0 0 23 19" fill="none" xmlns="http://www.w3.org/2000/svg">
<path d="M10.0449 18.3226C11.1495 18.3226 12.0449 17.5023 12.0449 16.4904C12.0449 15.4785 11.1495 14.6582 10.0449 14.6582C8.94035 14.6582 8.04492 15.4785 8.04492 16.4904C8.04492 17.5023 8.94035 18.3226 10.0449 18.3226Z" fill="#420808"/>
<path d="M16.7559 18.3226C17.8604 18.3226 18.7559 17.5023 18.7559 16.4904C18.7559 15.4785 17.8604 14.6582 16.7559 14.6582C15.6513 14.6582 14.7559 15.4785 14.7559 16.4904C14.7559 17.5023 15.6513 18.3226 16.7559 18.3226Z" fill="#420808"/>
<path d="M0.666665 1.22151H3.44679L6.66536 11.5435L6.41291 12.006C5.7482 13.2226 6.71313 14.6577 8.20197 14.6577H19.4222C19.7906 14.6577 20.0888 14.3846 20.0888 14.047C20.0888 13.7094 19.7906 13.4362 19.4222 13.4362H8.20197C7.70691 13.4362 7.38336 12.9587 7.60562 12.5523L7.78989 12.2148H19.4222C19.7197 12.2148 19.9814 12.0341 20.0634 11.7716L22.7301 3.22131C22.7874 3.03703 22.747 2.83899 22.6214 2.68573C22.4951 2.53305 22.2978 2.44299 22.0889 2.44299H5.21434L4.59065 0.44315C4.50861 0.180737 4.24692 0 3.94937 0H0.666665C0.298177 0 0 0.273162 0 0.610736C0 0.948311 0.298177 1.22151 0.666665 1.22151Z" fill="#420808"/>
</svg>
