<svg width="194" height="39" viewBox="0 0 194 39" fill="none" xmlns="http://www.w3.org/2000/svg">
<path d="M-0.000312477 1.43903V0.479031H19.8717V1.43903H-0.000312477ZM-0.000312477 3.55103V2.59103H19.8717V3.55103H-0.000312477ZM-0.000312477 5.66303V4.70303H19.8717V5.66303H-0.000312477ZM11.5837 26.207V6.68703H12.5437V26.207H11.5837ZM7.35969 26.207V6.68703H8.31969V26.207H7.35969ZM9.47169 26.207V6.68703H10.4317V26.207H9.47169ZM26.0037 26.207V0.479031H26.9637V26.207H26.0037ZM21.7797 26.207V0.479031H22.7397V26.207H21.7797ZM23.8917 26.207V0.479031H24.8517V26.207H23.8917ZM34.3787 26.207V0.479031H35.3387V26.207H34.3787ZM30.1547 26.207V0.479031H31.1147V26.207H30.1547ZM32.2667 26.207V0.479031H33.2267V26.207H32.2667ZM55.0827 26.207V0.479031H56.0427V26.207H55.0827ZM50.8587 26.207V0.479031H51.8187V26.207H50.8587ZM52.9707 26.207V0.479031H53.9307V26.207H52.9707ZM44.2987 11.359L43.7227 10.495L49.7067 1.82303V3.51903L44.2987 11.359ZM45.5787 16.895L36.4907 3.90303V2.27103L46.1867 16.063L45.5787 16.895ZM45.6107 13.215L45.0347 12.351L49.7067 5.69503V7.35903L45.6107 13.215ZM44.2987 18.783L36.4907 7.64703V5.95103L44.8747 17.919L44.2987 18.783ZM46.8907 15.039L46.3147 14.207L49.7067 9.37503V11.039L46.8907 15.039ZM43.0187 20.607L36.4907 11.327V9.63103L43.5947 19.775L43.0187 20.607ZM63.4724 26.207V0.479031H64.4324V26.207H63.4724ZM59.2484 26.207V0.479031H60.2084V26.207H59.2484ZM61.3604 26.207V0.479031H62.3204V26.207H61.3604ZM65.5844 1.43903V0.479031H78.3524V1.43903H65.5844ZM65.5844 3.55103V2.59103H78.3524V3.55103H65.5844ZM65.5844 5.66303V4.70303H78.3524V5.66303H65.5844ZM65.5844 11.711V10.751H76.5284V11.711H65.5844ZM65.5844 13.823V12.863H76.5284V13.823H65.5844ZM65.5844 15.935V14.975H76.5284V15.935H65.5844ZM65.5844 21.983V21.023H78.3524V21.983H65.5844ZM65.5844 24.095V23.135H78.3524V24.095H65.5844ZM65.5844 26.207V25.247H78.3524V26.207H65.5844ZM89.7687 22.463C88.254 22.463 87.006 22.175 86.0247 21.599C85.0434 21.0017 84.51 20.2124 84.4247 19.231L85.3527 18.975C85.3527 19.7004 85.758 20.3084 86.5687 20.799C87.4007 21.2684 88.4674 21.503 89.7687 21.503C91.1127 21.503 92.2007 21.2577 93.0327 20.767C93.886 20.2764 94.3127 19.647 94.3127 18.879C94.3127 18.1537 93.9607 17.567 93.2567 17.119C92.5527 16.671 91.5927 16.2764 90.3767 15.935L88.3927 15.359C85.7474 14.591 83.7527 13.6204 82.4087 12.447C81.0647 11.2737 80.3927 9.66303 80.3927 7.61503C80.3927 6.14303 80.798 4.8417 81.6087 3.71103C82.4407 2.55903 83.5607 1.65236 84.9687 0.99103C86.398 0.329696 88.0087 -0.00097084 89.8007 -0.00097084C91.422 -0.00097084 92.8834 0.265696 94.1847 0.79903C95.5074 1.31103 96.5954 2.04703 97.4487 3.00703C98.3234 3.96703 98.878 5.08703 99.1127 6.36703L98.1847 6.62303C97.9927 5.49236 97.5127 4.50036 96.7447 3.64703C95.9767 2.7937 94.9954 2.13236 93.8007 1.66303C92.606 1.1937 91.2727 0.95903 89.8007 0.95903C88.1794 0.95903 86.7287 1.2577 85.4487 1.85503C84.19 2.43103 83.1874 3.22036 82.4407 4.22303C81.7154 5.2257 81.3527 6.3777 81.3527 7.67903C81.3527 9.42836 81.9607 10.8364 83.1767 11.903C84.414 12.9484 86.238 13.8017 88.6487 14.463L90.6327 15.007C92.1047 15.4124 93.246 15.903 94.0567 16.479C94.8674 17.055 95.2727 17.8337 95.2727 18.815C95.2727 19.903 94.7714 20.7884 93.7687 21.471C92.766 22.1324 91.4327 22.463 89.7687 22.463ZM89.7687 24.575C87.7634 24.575 86.078 24.1377 84.7127 23.263C83.3687 22.367 82.5794 21.2044 82.3447 19.775L83.3047 19.519C83.4754 20.7564 84.1367 21.7484 85.2887 22.495C86.462 23.2417 87.9554 23.615 89.7687 23.615C91.0914 23.615 92.254 23.4124 93.2567 23.007C94.2594 22.6017 95.038 22.0364 95.5927 21.311C96.1474 20.5857 96.4247 19.7537 96.4247 18.815C96.4247 17.5137 95.934 16.4897 94.9527 15.743C93.9714 14.975 92.6167 14.3564 90.8887 13.887L88.9367 13.343C86.8674 12.767 85.278 12.0417 84.1687 11.167C83.0594 10.2924 82.5047 9.1297 82.5047 7.67903C82.5047 6.59103 82.814 5.63103 83.4327 4.79903C84.0727 3.96703 84.9474 3.31636 86.0567 2.84703C87.166 2.35636 88.414 2.11103 89.8007 2.11103C91.102 2.11103 92.2647 2.3137 93.2887 2.71903C94.334 3.10303 95.1874 3.6577 95.8487 4.38303C96.51 5.10836 96.9154 5.95103 97.0647 6.91103L96.1047 7.16703C95.9554 5.9297 95.294 4.9377 94.1207 4.19103C92.9687 3.44436 91.5287 3.07103 89.8007 3.07103C88.5847 3.07103 87.4967 3.2737 86.5367 3.67903C85.5767 4.06303 84.8194 4.60703 84.2647 5.31103C83.7314 5.9937 83.4647 6.78303 83.4647 7.67903C83.4647 8.89503 83.9447 9.85503 84.9047 10.559C85.886 11.263 87.3047 11.8817 89.1607 12.415L91.0807 12.959C93.0647 13.5137 94.6114 14.2497 95.7207 15.167C96.83 16.063 97.3847 17.279 97.3847 18.815C97.3847 19.9457 97.0647 20.9484 96.4247 21.823C95.7847 22.6764 94.8887 23.3484 93.7367 23.839C92.606 24.3297 91.2834 24.575 89.7687 24.575ZM89.7687 26.687C88.1047 26.687 86.6007 26.431 85.2567 25.919C83.934 25.3857 82.8354 24.6497 81.9607 23.711C81.1074 22.751 80.5527 21.6204 80.2967 20.319L81.2247 20.063C81.438 21.215 81.918 22.2177 82.6647 23.071C83.4327 23.903 84.4247 24.5537 85.6407 25.023C86.8567 25.4924 88.2327 25.727 89.7687 25.727C91.518 25.727 93.0434 25.439 94.3447 24.863C95.6674 24.2657 96.6914 23.455 97.4167 22.431C98.1634 21.3857 98.5367 20.1804 98.5367 18.815C98.5367 17.0017 97.9074 15.551 96.6487 14.463C95.39 13.375 93.6194 12.5004 91.3367 11.839L89.4487 11.295C87.8914 10.847 86.6967 10.3564 85.8647 9.82303C85.0327 9.2897 84.6167 8.57503 84.6167 7.67903C84.6167 6.6337 85.1074 5.8017 86.0887 5.18303C87.07 4.54303 88.3074 4.22303 89.8007 4.22303C91.2514 4.22303 92.446 4.5217 93.3847 5.11903C94.3234 5.71636 94.8567 6.49503 94.9847 7.45503L94.0567 7.71103C94.014 6.96436 93.598 6.35636 92.8087 5.88703C92.0407 5.4177 91.038 5.18303 89.8007 5.18303C88.6274 5.18303 87.6247 5.40703 86.7927 5.85503C85.982 6.30303 85.5767 6.8897 85.5767 7.61503C85.5767 8.27636 85.95 8.8097 86.6967 9.21503C87.4647 9.62036 88.4674 10.0044 89.7047 10.367L91.5287 10.911C94.11 11.679 96.0834 12.6817 97.4487 13.919C98.814 15.135 99.4967 16.7884 99.4967 18.879C99.4967 20.3937 99.0807 21.7484 98.2487 22.943C97.438 24.1164 96.2967 25.0337 94.8247 25.695C93.374 26.3564 91.6887 26.687 89.7687 26.687ZM100.125 1.43903V0.479031H119.997V1.43903H100.125ZM100.125 3.55103V2.59103H119.997V3.55103H100.125ZM100.125 5.66303V4.70303H119.997V5.66303H100.125ZM111.709 26.207V6.68703H112.669V26.207H111.709ZM107.485 26.207V6.68703H108.445V26.207H107.485ZM109.597 26.207V6.68703H110.557V26.207H109.597ZM145.711 13.343C145.711 11.6364 145.413 10.0364 144.815 8.54303C144.239 7.02836 143.407 5.7057 142.319 4.57503C141.231 3.44436 139.93 2.55903 138.415 1.91903C136.901 1.27903 135.205 0.95903 133.327 0.95903C131.45 0.95903 129.754 1.27903 128.239 1.91903C126.725 2.55903 125.423 3.44436 124.335 4.57503C123.247 5.7057 122.405 7.02836 121.807 8.54303C121.231 10.0364 120.943 11.6364 120.943 13.343C120.943 15.0497 121.231 16.6604 121.807 18.175C122.405 19.6684 123.247 20.9804 124.335 22.111C125.423 23.2417 126.725 24.127 128.239 24.767C129.754 25.407 131.45 25.727 133.327 25.727C135.205 25.727 136.901 25.407 138.415 24.767C139.93 24.127 141.231 23.2417 142.319 22.111C143.407 20.9804 144.239 19.6684 144.815 18.175C145.413 16.6604 145.711 15.0497 145.711 13.343ZM143.599 13.343C143.599 11.4444 143.183 9.72703 142.351 8.19103C141.519 6.6337 140.335 5.39636 138.799 4.47903C137.263 3.5617 135.439 3.10303 133.327 3.10303C131.237 3.10303 129.413 3.5617 127.855 4.47903C126.319 5.39636 125.135 6.6337 124.303 8.19103C123.471 9.72703 123.055 11.4444 123.055 13.343C123.055 15.2204 123.471 16.9377 124.303 18.495C125.135 20.0524 126.319 21.2897 127.855 22.207C129.413 23.1244 131.237 23.583 133.327 23.583C135.439 23.583 137.263 23.1244 138.799 22.207C140.335 21.2897 141.519 20.0524 142.351 18.495C143.183 16.9377 143.599 15.2204 143.599 13.343ZM141.487 13.343C141.487 11.8497 141.167 10.495 140.527 9.27903C139.887 8.0417 138.959 7.06036 137.743 6.33503C136.527 5.58836 135.055 5.21503 133.327 5.21503C131.621 5.21503 130.149 5.58836 128.911 6.33503C127.695 7.06036 126.767 8.0417 126.127 9.27903C125.487 10.495 125.167 11.8497 125.167 13.343C125.167 14.8364 125.487 16.2017 126.127 17.439C126.767 18.655 127.695 19.6364 128.911 20.383C130.149 21.1084 131.621 21.471 133.327 21.471C135.055 21.471 136.527 21.1084 137.743 20.383C138.959 19.6364 139.887 18.655 140.527 17.439C141.167 16.2017 141.487 14.8364 141.487 13.343ZM133.327 22.463C131.429 22.463 129.797 22.0577 128.431 21.247C127.066 20.415 126.021 19.3057 125.295 17.919C124.57 16.5324 124.207 15.007 124.207 13.343C124.207 11.6577 124.57 10.1324 125.295 8.76703C126.021 7.38036 127.066 6.2817 128.431 5.47103C129.797 4.63903 131.429 4.22303 133.327 4.22303C135.226 4.22303 136.858 4.63903 138.223 5.47103C139.589 6.2817 140.634 7.38036 141.359 8.76703C142.085 10.1324 142.447 11.6577 142.447 13.343C142.447 15.007 142.085 16.5324 141.359 17.919C140.634 19.3057 139.589 20.415 138.223 21.247C136.858 22.0577 135.226 22.463 133.327 22.463ZM133.327 24.575C131.621 24.575 130.074 24.287 128.687 23.711C127.322 23.1137 126.138 22.303 125.135 21.279C124.154 20.255 123.397 19.071 122.863 17.727C122.351 16.3617 122.095 14.9004 122.095 13.343C122.095 11.7857 122.351 10.335 122.863 8.99103C123.397 7.6257 124.154 6.43103 125.135 5.40703C126.138 4.3617 127.322 3.55103 128.687 2.97503C130.074 2.39903 131.621 2.11103 133.327 2.11103C135.034 2.11103 136.57 2.39903 137.935 2.97503C139.322 3.55103 140.506 4.3617 141.487 5.40703C142.49 6.43103 143.247 7.6257 143.759 8.99103C144.293 10.335 144.559 11.7857 144.559 13.343C144.559 14.9004 144.293 16.3617 143.759 17.727C143.247 19.071 142.49 20.255 141.487 21.279C140.506 22.303 139.322 23.1137 137.935 23.711C136.57 24.287 135.034 24.575 133.327 24.575ZM133.327 26.687C131.322 26.687 129.498 26.3457 127.855 25.663C126.234 24.959 124.837 23.999 123.663 22.783C122.49 21.567 121.583 20.159 120.943 18.559C120.303 16.9377 119.983 15.199 119.983 13.343C119.983 11.487 120.303 9.75903 120.943 8.15903C121.583 6.5377 122.49 5.11903 123.663 3.90303C124.837 2.68703 126.234 1.7377 127.855 1.05503C129.498 0.35103 131.322 -0.00097084 133.327 -0.00097084C135.333 -0.00097084 137.146 0.35103 138.767 1.05503C140.41 1.7377 141.818 2.68703 142.991 3.90303C144.165 5.11903 145.071 6.5377 145.711 8.15903C146.351 9.75903 146.671 11.487 146.671 13.343C146.671 15.199 146.351 16.9377 145.711 18.559C145.071 20.159 144.165 21.567 142.991 22.783C141.818 23.999 140.41 24.959 138.767 25.663C137.146 26.3457 135.333 26.687 133.327 26.687ZM170.529 26.207V0.479031H171.489V26.207H170.529ZM166.305 26.207V0.479031H167.265V26.207H166.305ZM168.417 26.207V0.479031H169.377V26.207H168.417ZM153.441 26.207V0.479031H154.401V26.207H153.441ZM149.217 26.207V0.479031H150.177V26.207H149.217ZM151.329 26.207V0.479031H152.289V26.207H151.329ZM165.153 17.343L155.553 3.55103V1.85503L165.153 15.647V17.343ZM165.153 21.055L155.553 7.26303V5.56703L165.153 19.359V21.055ZM165.153 24.767L155.553 10.975V9.27903L165.153 23.071V24.767ZM178.91 26.207V0.479031H179.87V26.207H178.91ZM174.686 26.207V0.479031H175.646V26.207H174.686ZM176.798 26.207V0.479031H177.758V26.207H176.798ZM181.022 1.43903V0.479031H193.79V1.43903H181.022ZM181.022 3.55103V2.59103H193.79V3.55103H181.022ZM181.022 5.66303V4.70303H193.79V5.66303H181.022ZM181.022 11.711V10.751H191.966V11.711H181.022ZM181.022 13.823V12.863H191.966V13.823H181.022ZM181.022 15.935V14.975H191.966V15.935H181.022ZM181.022 21.983V21.023H193.79V21.983H181.022ZM181.022 24.095V23.135H193.79V24.095H181.022ZM181.022 26.207V25.247H193.79V26.207H181.022ZM7.56653 38.207L4.31453 28.559H4.69853L7.95053 38.207H7.56653ZM5.88653 38.207L2.63453 28.559H3.01853L6.27053 38.207H5.88653ZM6.72653 38.207L3.47453 28.559H3.85853L7.11053 38.207H6.72653ZM7.79453 36.395L7.60253 35.807L10.0265 28.559H10.4105L7.79453 36.395ZM7.37453 35.135L7.18253 34.571L9.18653 28.559H9.57053L7.37453 35.135ZM8.21453 37.619L8.02253 37.067L10.8665 28.559H11.2505L8.21453 37.619ZM21.0158 33.383C21.0158 32.743 20.9038 32.143 20.6798 31.583C20.4638 31.015 20.1518 30.519 19.7438 30.095C19.3358 29.671 18.8478 29.339 18.2798 29.099C17.7118 28.859 17.0758 28.739 16.3718 28.739C15.6678 28.739 15.0318 28.859 14.4638 29.099C13.8958 29.339 13.4078 29.671 12.9998 30.095C12.5918 30.519 12.2758 31.015 12.0518 31.583C11.8358 32.143 11.7278 32.743 11.7278 33.383C11.7278 34.023 11.8358 34.627 12.0518 35.195C12.2758 35.755 12.5918 36.247 12.9998 36.671C13.4078 37.095 13.8958 37.427 14.4638 37.667C15.0318 37.907 15.6678 38.027 16.3718 38.027C17.0758 38.027 17.7118 37.907 18.2798 37.667C18.8478 37.427 19.3358 37.095 19.7438 36.671C20.1518 36.247 20.4638 35.755 20.6798 35.195C20.9038 34.627 21.0158 34.023 21.0158 33.383ZM20.2238 33.383C20.2238 32.671 20.0678 32.027 19.7558 31.451C19.4438 30.867 18.9998 30.403 18.4238 30.059C17.8478 29.715 17.1638 29.543 16.3718 29.543C15.5878 29.543 14.9038 29.715 14.3198 30.059C13.7438 30.403 13.2998 30.867 12.9878 31.451C12.6758 32.027 12.5198 32.671 12.5198 33.383C12.5198 34.087 12.6758 34.731 12.9878 35.315C13.2998 35.899 13.7438 36.363 14.3198 36.707C14.9038 37.051 15.5878 37.223 16.3718 37.223C17.1638 37.223 17.8478 37.051 18.4238 36.707C18.9998 36.363 19.4438 35.899 19.7558 35.315C20.0678 34.731 20.2238 34.087 20.2238 33.383ZM19.4318 33.383C19.4318 32.823 19.3118 32.315 19.0718 31.859C18.8318 31.395 18.4838 31.027 18.0278 30.755C17.5718 30.475 17.0198 30.335 16.3718 30.335C15.7318 30.335 15.1798 30.475 14.7158 30.755C14.2598 31.027 13.9118 31.395 13.6718 31.859C13.4318 32.315 13.3118 32.823 13.3118 33.383C13.3118 33.943 13.4318 34.455 13.6718 34.919C13.9118 35.375 14.2598 35.743 14.7158 36.023C15.1798 36.295 15.7318 36.431 16.3718 36.431C17.0198 36.431 17.5718 36.295 18.0278 36.023C18.4838 35.743 18.8318 35.375 19.0718 34.919C19.3118 34.455 19.4318 33.943 19.4318 33.383ZM16.3718 36.803C15.6598 36.803 15.0478 36.651 14.5358 36.347C14.0238 36.035 13.6318 35.619 13.3598 35.099C13.0878 34.579 12.9518 34.007 12.9518 33.383C12.9518 32.751 13.0878 32.179 13.3598 31.667C13.6318 31.147 14.0238 30.735 14.5358 30.431C15.0478 30.119 15.6598 29.963 16.3718 29.963C17.0838 29.963 17.6958 30.119 18.2078 30.431C18.7198 30.735 19.1118 31.147 19.3838 31.667C19.6558 32.179 19.7918 32.751 19.7918 33.383C19.7918 34.007 19.6558 34.579 19.3838 35.099C19.1118 35.619 18.7198 36.035 18.2078 36.347C17.6958 36.651 17.0838 36.803 16.3718 36.803ZM16.3718 37.595C15.7318 37.595 15.1518 37.487 14.6318 37.271C14.1198 37.047 13.6758 36.743 13.2998 36.359C12.9318 35.975 12.6478 35.531 12.4478 35.027C12.2558 34.515 12.1598 33.967 12.1598 33.383C12.1598 32.799 12.2558 32.255 12.4478 31.751C12.6478 31.239 12.9318 30.791 13.2998 30.407C13.6758 30.015 14.1198 29.711 14.6318 29.495C15.1518 29.279 15.7318 29.171 16.3718 29.171C17.0118 29.171 17.5878 29.279 18.0998 29.495C18.6198 29.711 19.0638 30.015 19.4318 30.407C19.8078 30.791 20.0918 31.239 20.2838 31.751C20.4838 32.255 20.5838 32.799 20.5838 33.383C20.5838 33.967 20.4838 34.515 20.2838 35.027C20.0918 35.531 19.8078 35.975 19.4318 36.359C19.0638 36.743 18.6198 37.047 18.0998 37.271C17.5878 37.487 17.0118 37.595 16.3718 37.595ZM16.3718 38.387C15.6198 38.387 14.9358 38.259 14.3198 38.003C13.7118 37.739 13.1878 37.379 12.7478 36.923C12.3078 36.467 11.9678 35.939 11.7278 35.339C11.4878 34.731 11.3678 34.079 11.3678 33.383C11.3678 32.687 11.4878 32.039 11.7278 31.439C11.9678 30.831 12.3078 30.299 12.7478 29.843C13.1878 29.387 13.7118 29.031 14.3198 28.775C14.9358 28.511 15.6198 28.379 16.3718 28.379C17.1238 28.379 17.8038 28.511 18.4118 28.775C19.0278 29.031 19.5558 29.387 19.9958 29.843C20.4358 30.299 20.7758 30.831 21.0158 31.439C21.2558 32.039 21.3758 32.687 21.3758 33.383C21.3758 34.079 21.2558 34.731 21.0158 35.339C20.7758 35.939 20.4358 36.467 19.9958 36.923C19.5558 37.379 19.0278 37.739 18.4118 38.003C17.8038 38.259 17.1238 38.387 16.3718 38.387ZM23.9145 38.207V28.559H24.2745V38.207H23.9145ZM22.3305 38.207V28.559H22.6905V38.207H22.3305ZM23.1225 38.207V28.559H23.4825V38.207H23.1225ZM24.7065 36.623V36.263H28.8105V36.623H24.7065ZM24.7065 37.415V37.055H28.8105V37.415H24.7065ZM24.7065 38.207V37.847H28.8105V38.207H24.7065ZM32.7042 36.803C32.2482 36.803 31.8682 36.711 31.5642 36.527C31.2682 36.343 31.0442 36.099 30.8922 35.795C30.7482 35.483 30.6762 35.139 30.6762 34.763V28.559H31.0362V34.763C31.0362 35.227 31.1682 35.623 31.4322 35.951C31.6962 36.279 32.1202 36.443 32.7042 36.443C33.2882 36.443 33.7122 36.279 33.9762 35.951C34.2402 35.623 34.3722 35.227 34.3722 34.763V28.559H34.7322V34.763C34.7322 35.139 34.6562 35.483 34.5042 35.795C34.3602 36.099 34.1362 36.343 33.8322 36.527C33.5362 36.711 33.1602 36.803 32.7042 36.803ZM32.7042 38.387C31.9602 38.387 31.3162 38.227 30.7722 37.907C30.2362 37.579 29.8202 37.139 29.5242 36.587C29.2362 36.035 29.0922 35.427 29.0922 34.763V28.559H29.4522V34.763C29.4522 35.363 29.5802 35.911 29.8362 36.407C30.1002 36.903 30.4722 37.299 30.9522 37.595C31.4402 37.883 32.0242 38.027 32.7042 38.027C33.3842 38.027 33.9642 37.883 34.4442 37.595C34.9322 37.299 35.3042 36.903 35.5602 36.407C35.8242 35.911 35.9562 35.363 35.9562 34.763V28.559H36.3162V34.763C36.3162 35.427 36.1682 36.035 35.8722 36.587C35.5842 37.139 35.1722 37.579 34.6362 37.907C34.1002 38.227 33.4562 38.387 32.7042 38.387ZM32.7042 37.595C32.1042 37.595 31.5922 37.467 31.1682 37.211C30.7522 36.955 30.4322 36.615 30.2082 36.191C29.9922 35.759 29.8842 35.283 29.8842 34.763V28.559H30.2442V34.763C30.2442 35.219 30.3362 35.635 30.5202 36.011C30.7122 36.379 30.9922 36.675 31.3602 36.899C31.7282 37.123 32.1762 37.235 32.7042 37.235C33.2402 37.235 33.6882 37.123 34.0482 36.899C34.4162 36.675 34.6922 36.379 34.8762 36.011C35.0682 35.635 35.1642 35.219 35.1642 34.763V28.559H35.5242V34.763C35.5242 35.283 35.4122 35.759 35.1882 36.191C34.9722 36.615 34.6522 36.955 34.2282 37.211C33.8122 37.467 33.3042 37.595 32.7042 37.595ZM39.102 38.207V28.559H39.462V38.207H39.102ZM37.518 38.207V28.559H37.878V38.207H37.518ZM38.31 38.207V28.559H38.67V38.207H38.31ZM46.866 38.207V28.559H47.226V38.207H46.866ZM45.282 38.207V28.559H45.642V38.207H45.282ZM46.074 38.207V28.559H46.434V38.207H46.074ZM42.822 32.639L42.606 32.315L44.85 29.063V29.699L42.822 32.639ZM43.302 34.715L39.894 29.843V29.231L43.53 34.403L43.302 34.715ZM43.314 33.335L43.098 33.011L44.85 30.515V31.139L43.314 33.335ZM42.822 35.423L39.894 31.247V30.611L43.038 35.099L42.822 35.423ZM43.794 34.019L43.578 33.707L44.85 31.895V32.519L43.794 34.019ZM42.342 36.107L39.894 32.627V31.991L42.558 35.795L42.342 36.107ZM50.0121 38.207V28.559H50.3721V38.207H50.0121ZM48.4281 38.207V28.559H48.7881V38.207H48.4281ZM49.2201 38.207V28.559H49.5801V38.207H49.2201ZM50.8041 28.919V28.559H55.5921V28.919H50.8041ZM50.8041 29.711V29.351H55.5921V29.711H50.8041ZM50.8041 30.503V30.143H55.5921V30.503H50.8041ZM50.8041 32.771V32.411H54.9081V32.771H50.8041ZM50.8041 33.563V33.203H54.9081V33.563H50.8041ZM50.8041 34.355V33.995H54.9081V34.355H50.8041ZM50.8041 36.623V36.263H55.5921V36.623H50.8041ZM50.8041 37.415V37.055H55.5921V37.415H50.8041ZM50.8041 38.207V37.847H55.5921V38.207H50.8041ZM56.0692 28.919V28.559H63.5212V28.919H56.0692ZM56.0692 29.711V29.351H63.5212V29.711H56.0692ZM56.0692 30.503V30.143H63.5212V30.503H56.0692ZM60.4132 38.207V30.887H60.7732V38.207H60.4132ZM58.8292 38.207V30.887H59.1892V38.207H58.8292ZM59.6212 38.207V30.887H59.9812V38.207H59.6212ZM65.8207 38.207V28.559H66.1807V38.207H65.8207ZM64.2367 38.207V28.559H64.5967V38.207H64.2367ZM65.0287 38.207V28.559H65.3887V38.207H65.0287ZM66.6127 34.175V33.815H69.4327C69.8887 33.815 70.3007 33.715 70.6687 33.515C71.0447 33.315 71.3407 33.031 71.5567 32.663C71.7807 32.295 71.8927 31.863 71.8927 31.367C71.8927 30.871 71.7807 30.439 71.5567 30.071C71.3407 29.703 71.0447 29.419 70.6687 29.219C70.3007 29.019 69.8887 28.919 69.4327 28.919H66.6127V28.559H69.4327C69.9527 28.559 70.4247 28.679 70.8487 28.919C71.2807 29.151 71.6207 29.479 71.8687 29.903C72.1247 30.319 72.2527 30.807 72.2527 31.367C72.2527 31.927 72.1247 32.419 71.8687 32.843C71.6207 33.259 71.2807 33.587 70.8487 33.827C70.4247 34.059 69.9527 34.175 69.4327 34.175H66.6127ZM66.6127 33.383V33.023H69.4327C69.8967 33.023 70.2887 32.879 70.6087 32.591C70.9367 32.295 71.1007 31.887 71.1007 31.367C71.1007 30.847 70.9367 30.443 70.6087 30.155C70.2887 29.859 69.8967 29.711 69.4327 29.711H66.6127V29.351H69.4327C69.8087 29.351 70.1487 29.435 70.4527 29.603C70.7567 29.763 71.0007 29.995 71.1847 30.299C71.3687 30.595 71.4607 30.951 71.4607 31.367C71.4607 31.783 71.3687 32.143 71.1847 32.447C71.0007 32.743 70.7567 32.975 70.4527 33.143C70.1487 33.303 69.8087 33.383 69.4327 33.383H66.6127ZM66.6127 32.591V32.231H69.4327C69.6727 32.231 69.8767 32.163 70.0447 32.027C70.2207 31.883 70.3087 31.663 70.3087 31.367C70.3087 31.063 70.2207 30.843 70.0447 30.707C69.8767 30.571 69.6727 30.503 69.4327 30.503H66.6127V30.143H69.4327C69.7767 30.143 70.0687 30.247 70.3087 30.455C70.5487 30.663 70.6687 30.967 70.6687 31.367C70.6687 31.767 70.5487 32.071 70.3087 32.279C70.0687 32.487 69.7767 32.591 69.4327 32.591H66.6127ZM71.7607 38.207L70.0687 34.499C70.1247 34.491 70.1807 34.483 70.2367 34.475C70.3007 34.459 70.3607 34.439 70.4167 34.415L72.1567 38.207H71.7607ZM70.8847 38.207L69.2167 34.583C69.2807 34.583 69.3447 34.583 69.4087 34.583C69.4807 34.575 69.5487 34.567 69.6127 34.559L71.2807 38.207H70.8847ZM70.0087 38.207L68.3527 34.595H68.7487L70.4047 38.207H70.0087ZM74.7621 38.207V28.559H75.1221V38.207H74.7621ZM73.1781 38.207V28.559H73.5381V38.207H73.1781ZM73.9701 38.207V28.559H74.3301V38.207H73.9701ZM81.0828 36.803C80.3708 36.803 79.7588 36.651 79.2467 36.347C78.7348 36.035 78.3428 35.619 78.0708 35.099C77.7988 34.579 77.6628 34.007 77.6628 33.383C77.6628 32.751 77.7988 32.179 78.0708 31.667C78.3428 31.147 78.7348 30.735 79.2467 30.431C79.7588 30.119 80.3708 29.963 81.0828 29.963C81.6028 29.963 82.0708 30.051 82.4868 30.227C82.9028 30.395 83.2548 30.631 83.5428 30.935L83.2908 31.187C83.0268 30.923 82.7108 30.715 82.3428 30.563C81.9748 30.411 81.5548 30.335 81.0828 30.335C80.4428 30.335 79.8908 30.475 79.4268 30.755C78.9708 31.027 78.6228 31.395 78.3828 31.859C78.1428 32.315 78.0228 32.823 78.0228 33.383C78.0228 33.943 78.1428 34.455 78.3828 34.919C78.6228 35.375 78.9708 35.743 79.4268 36.023C79.8908 36.295 80.4428 36.431 81.0828 36.431C81.5548 36.431 81.9748 36.355 82.3428 36.203C82.7108 36.051 83.0268 35.843 83.2908 35.579L83.5428 35.831C83.2548 36.127 82.9028 36.363 82.4868 36.539C82.0708 36.715 81.6028 36.803 81.0828 36.803ZM81.0828 37.595C80.4428 37.595 79.8628 37.487 79.3428 37.271C78.8308 37.047 78.3868 36.743 78.0108 36.359C77.6428 35.975 77.3588 35.531 77.1588 35.027C76.9668 34.515 76.8708 33.967 76.8708 33.383C76.8708 32.799 76.9668 32.255 77.1588 31.751C77.3588 31.239 77.6428 30.791 78.0108 30.407C78.3868 30.015 78.8308 29.711 79.3428 29.495C79.8628 29.279 80.4428 29.171 81.0828 29.171C81.7148 29.171 82.2828 29.279 82.7868 29.495C83.2988 29.703 83.7388 29.995 84.1068 30.371L83.8428 30.635C83.5148 30.291 83.1148 30.023 82.6428 29.831C82.1788 29.639 81.6588 29.543 81.0828 29.543C80.2988 29.543 79.6148 29.715 79.0308 30.059C78.4548 30.403 78.0108 30.867 77.6988 31.451C77.3868 32.027 77.2308 32.671 77.2308 33.383C77.2308 34.087 77.3868 34.731 77.6988 35.315C78.0108 35.899 78.4548 36.363 79.0308 36.707C79.6148 37.051 80.2988 37.223 81.0828 37.223C81.6588 37.223 82.1788 37.127 82.6428 36.935C83.1148 36.743 83.5148 36.475 83.8428 36.131L84.1068 36.395C83.7388 36.763 83.2988 37.055 82.7868 37.271C82.2828 37.487 81.7148 37.595 81.0828 37.595ZM81.0828 38.387C80.3308 38.387 79.6468 38.259 79.0308 38.003C78.4228 37.739 77.8988 37.379 77.4588 36.923C77.0188 36.467 76.6788 35.939 76.4388 35.339C76.1988 34.731 76.0788 34.079 76.0788 33.383C76.0788 32.687 76.1988 32.039 76.4388 31.439C76.6788 30.831 77.0188 30.299 77.4588 29.843C77.8988 29.387 78.4228 29.031 79.0308 28.775C79.6468 28.511 80.3308 28.379 81.0828 28.379C81.8188 28.379 82.4908 28.507 83.0988 28.763C83.7068 29.011 84.2308 29.359 84.6708 29.807L84.4188 30.059C84.0108 29.651 83.5228 29.331 82.9548 29.099C82.3948 28.859 81.7708 28.739 81.0828 28.739C80.3788 28.739 79.7428 28.859 79.1748 29.099C78.6068 29.339 78.1188 29.671 77.7108 30.095C77.3028 30.519 76.9868 31.015 76.7628 31.583C76.5468 32.143 76.4388 32.743 76.4388 33.383C76.4388 34.023 76.5468 34.627 76.7628 35.195C76.9868 35.755 77.3028 36.247 77.7108 36.671C78.1188 37.095 78.6068 37.427 79.1748 37.667C79.7428 37.907 80.3788 38.027 81.0828 38.027C81.7708 38.027 82.3948 37.911 82.9548 37.679C83.5228 37.439 84.0108 37.115 84.4188 36.707L84.6708 36.959C84.2308 37.399 83.7068 37.747 83.0988 38.003C82.4908 38.259 81.8188 38.387 81.0828 38.387ZM92.6944 38.207L90.2704 28.559H90.6424L93.0664 38.207H92.6944ZM91.0624 38.207L88.6384 28.559H89.0104L91.4344 38.207H91.0624ZM91.8784 38.207L89.4544 28.559H89.8264L92.2504 38.207H91.8784ZM93.2944 37.319L93.1024 36.563L95.1184 28.559H95.4904L93.2944 37.319ZM92.8744 35.711L92.6944 34.979L94.3024 28.559H94.6744L92.8744 35.711ZM92.4664 34.079L92.2984 33.323L93.4864 28.559H93.8584L92.4664 34.079ZM97.6264 37.295L97.4464 36.551L99.4504 28.559H99.8224L97.6264 37.295ZM97.2304 35.663L97.0504 34.919L98.6344 28.559H99.0064L97.2304 35.663ZM96.8104 34.031L96.6304 33.287L97.8184 28.559H98.1904L96.8104 34.031ZM97.0384 38.207L95.2744 31.211L95.4664 30.455L97.4104 38.207H97.0384ZM96.2344 38.207L94.8784 32.795L95.0584 32.063L96.6064 38.207H96.2344ZM95.4184 38.207L94.4584 34.415L94.6504 33.659L95.7904 38.207H95.4184ZM102.243 38.207V28.559H102.603V38.207H102.243ZM100.659 38.207V28.559H101.019V38.207H100.659ZM101.451 38.207V28.559H101.811V38.207H101.451ZM103.035 34.175V33.815H105.855C106.311 33.815 106.723 33.715 107.091 33.515C107.467 33.315 107.763 33.031 107.979 32.663C108.203 32.295 108.315 31.863 108.315 31.367C108.315 30.871 108.203 30.439 107.979 30.071C107.763 29.703 107.467 29.419 107.091 29.219C106.723 29.019 106.311 28.919 105.855 28.919H103.035V28.559H105.855C106.375 28.559 106.847 28.679 107.271 28.919C107.703 29.151 108.043 29.479 108.291 29.903C108.547 30.319 108.675 30.807 108.675 31.367C108.675 31.927 108.547 32.419 108.291 32.843C108.043 33.259 107.703 33.587 107.271 33.827C106.847 34.059 106.375 34.175 105.855 34.175H103.035ZM103.035 33.383V33.023H105.855C106.319 33.023 106.711 32.879 107.031 32.591C107.359 32.295 107.523 31.887 107.523 31.367C107.523 30.847 107.359 30.443 107.031 30.155C106.711 29.859 106.319 29.711 105.855 29.711H103.035V29.351H105.855C106.231 29.351 106.571 29.435 106.875 29.603C107.179 29.763 107.423 29.995 107.607 30.299C107.791 30.595 107.883 30.951 107.883 31.367C107.883 31.783 107.791 32.143 107.607 32.447C107.423 32.743 107.179 32.975 106.875 33.143C106.571 33.303 106.231 33.383 105.855 33.383H103.035ZM103.035 32.591V32.231H105.855C106.095 32.231 106.299 32.163 106.467 32.027C106.643 31.883 106.731 31.663 106.731 31.367C106.731 31.063 106.643 30.843 106.467 30.707C106.299 30.571 106.095 30.503 105.855 30.503H103.035V30.143H105.855C106.199 30.143 106.491 30.247 106.731 30.455C106.971 30.663 107.091 30.967 107.091 31.367C107.091 31.767 106.971 32.071 106.731 32.279C106.491 32.487 106.199 32.591 105.855 32.591H103.035ZM108.183 38.207L106.491 34.499C106.547 34.491 106.603 34.483 106.659 34.475C106.723 34.459 106.783 34.439 106.839 34.415L108.579 38.207H108.183ZM107.307 38.207L105.639 34.583C105.703 34.583 105.767 34.583 105.831 34.583C105.903 34.575 105.971 34.567 106.035 34.559L107.703 38.207H107.307ZM106.431 38.207L104.775 34.595H105.171L106.827 38.207H106.431ZM111.184 38.207V28.559H111.544V38.207H111.184ZM109.6 38.207V28.559H109.96V38.207H109.6ZM110.392 38.207V28.559H110.752V38.207H110.392ZM116.065 36.803C115.497 36.803 115.029 36.695 114.661 36.479C114.293 36.255 114.093 35.959 114.061 35.591L114.409 35.495C114.409 35.767 114.561 35.995 114.865 36.179C115.177 36.355 115.577 36.443 116.065 36.443C116.569 36.443 116.977 36.351 117.289 36.167C117.609 35.983 117.769 35.747 117.769 35.459C117.769 35.187 117.637 34.967 117.373 34.799C117.109 34.631 116.749 34.483 116.293 34.355L115.549 34.139C114.557 33.851 113.809 33.487 113.305 33.047C112.801 32.607 112.549 32.003 112.549 31.235C112.549 30.683 112.701 30.195 113.005 29.771C113.317 29.339 113.737 28.999 114.265 28.751C114.801 28.503 115.405 28.379 116.077 28.379C116.685 28.379 117.233 28.479 117.721 28.679C118.217 28.871 118.625 29.147 118.945 29.507C119.273 29.867 119.481 30.287 119.569 30.767L119.221 30.863C119.149 30.439 118.969 30.067 118.681 29.747C118.393 29.427 118.025 29.179 117.577 29.003C117.129 28.827 116.629 28.739 116.077 28.739C115.469 28.739 114.925 28.851 114.445 29.075C113.973 29.291 113.597 29.587 113.317 29.963C113.045 30.339 112.909 30.771 112.909 31.259C112.909 31.915 113.137 32.443 113.593 32.843C114.057 33.235 114.741 33.555 115.645 33.803L116.389 34.007C116.941 34.159 117.369 34.343 117.673 34.559C117.977 34.775 118.129 35.067 118.129 35.435C118.129 35.843 117.941 36.175 117.565 36.431C117.189 36.679 116.689 36.803 116.065 36.803ZM116.065 37.595C115.313 37.595 114.681 37.431 114.169 37.103C113.665 36.767 113.369 36.331 113.281 35.795L113.641 35.699C113.705 36.163 113.953 36.535 114.385 36.815C114.825 37.095 115.385 37.235 116.065 37.235C116.561 37.235 116.997 37.159 117.373 37.007C117.749 36.855 118.041 36.643 118.249 36.371C118.457 36.099 118.561 35.787 118.561 35.435C118.561 34.947 118.377 34.563 118.009 34.283C117.641 33.995 117.133 33.763 116.485 33.587L115.753 33.383C114.977 33.167 114.381 32.895 113.965 32.567C113.549 32.239 113.341 31.803 113.341 31.259C113.341 30.851 113.457 30.491 113.689 30.179C113.929 29.867 114.257 29.623 114.673 29.447C115.089 29.263 115.557 29.171 116.077 29.171C116.565 29.171 117.001 29.247 117.385 29.399C117.777 29.543 118.097 29.751 118.345 30.023C118.593 30.295 118.745 30.611 118.801 30.971L118.441 31.067C118.385 30.603 118.137 30.231 117.697 29.951C117.265 29.671 116.725 29.531 116.077 29.531C115.621 29.531 115.213 29.607 114.853 29.759C114.493 29.903 114.209 30.107 114.001 30.371C113.801 30.627 113.701 30.923 113.701 31.259C113.701 31.715 113.881 32.075 114.241 32.339C114.609 32.603 115.141 32.835 115.837 33.035L116.557 33.239C117.301 33.447 117.881 33.723 118.297 34.067C118.713 34.403 118.921 34.859 118.921 35.435C118.921 35.859 118.801 36.235 118.561 36.563C118.321 36.883 117.985 37.135 117.553 37.319C117.129 37.503 116.633 37.595 116.065 37.595ZM116.065 38.387C115.441 38.387 114.877 38.291 114.373 38.099C113.877 37.899 113.465 37.623 113.137 37.271C112.817 36.911 112.609 36.487 112.513 35.999L112.861 35.903C112.941 36.335 113.121 36.711 113.401 37.031C113.689 37.343 114.061 37.587 114.517 37.763C114.973 37.939 115.489 38.027 116.065 38.027C116.721 38.027 117.293 37.919 117.781 37.703C118.277 37.479 118.661 37.175 118.933 36.791C119.213 36.399 119.353 35.947 119.353 35.435C119.353 34.755 119.117 34.211 118.645 33.803C118.173 33.395 117.509 33.067 116.653 32.819L115.945 32.615C115.361 32.447 114.913 32.263 114.601 32.063C114.289 31.863 114.133 31.595 114.133 31.259C114.133 30.867 114.317 30.555 114.685 30.323C115.053 30.083 115.517 29.963 116.077 29.963C116.621 29.963 117.069 30.075 117.421 30.299C117.773 30.523 117.973 30.815 118.021 31.175L117.673 31.271C117.657 30.991 117.501 30.763 117.205 30.587C116.917 30.411 116.541 30.323 116.077 30.323C115.637 30.323 115.261 30.407 114.949 30.575C114.645 30.743 114.493 30.963 114.493 31.235C114.493 31.483 114.633 31.683 114.913 31.835C115.201 31.987 115.577 32.131 116.041 32.267L116.725 32.471C117.693 32.759 118.433 33.135 118.945 33.599C119.457 34.055 119.713 34.675 119.713 35.459C119.713 36.027 119.557 36.535 119.245 36.983C118.941 37.423 118.513 37.767 117.961 38.015C117.417 38.263 116.785 38.387 116.065 38.387ZM119.948 28.919V28.559H127.4V28.919H119.948ZM119.948 29.711V29.351H127.4V29.711H119.948ZM119.948 30.503V30.143H127.4V30.503H119.948ZM124.292 38.207V30.887H124.652V38.207H124.292ZM122.708 38.207V30.887H123.068V38.207H122.708ZM123.5 38.207V30.887H123.86V38.207H123.5ZM135.175 38.207L132.751 28.559H133.123L135.547 38.207H135.175ZM133.543 38.207L131.119 28.559H131.491L133.915 38.207H133.543ZM134.359 38.207L131.935 28.559H132.307L134.731 38.207H134.359ZM135.775 37.319L135.583 36.563L137.599 28.559H137.971L135.775 37.319ZM135.355 35.711L135.175 34.979L136.783 28.559H137.155L135.355 35.711ZM134.947 34.079L134.779 33.323L135.967 28.559H136.339L134.947 34.079ZM140.107 37.295L139.927 36.551L141.931 28.559H142.303L140.107 37.295ZM139.711 35.663L139.531 34.919L141.115 28.559H141.487L139.711 35.663ZM139.291 34.031L139.111 33.287L140.299 28.559H140.671L139.291 34.031ZM139.519 38.207L137.755 31.211L137.947 30.455L139.891 38.207H139.519ZM138.715 38.207L137.359 32.795L137.539 32.063L139.087 38.207H138.715ZM137.899 38.207L136.939 34.415L137.131 33.659L138.271 38.207H137.899ZM143.744 38.207L147.236 28.559H147.62L144.128 38.207H143.744ZM142.064 38.207L145.556 28.559H145.928L142.448 38.207H142.064ZM142.904 38.207L146.384 28.559H146.78L143.288 38.207H142.904ZM150.776 38.207L147.644 29.555L147.836 29.015L151.16 38.207H150.776ZM149.936 38.207L147.236 30.731L147.416 30.179L150.32 38.207H149.936ZM149.096 38.207L146.816 31.895L147.008 31.355L149.48 38.207H149.096ZM145.7 35.015L145.832 34.655H147.416L147.548 35.015H145.7ZM145.412 35.819L145.544 35.459H147.704L147.836 35.819H145.412ZM145.124 36.611L145.256 36.251H147.992L148.124 36.611H145.124ZM150.323 28.919V28.559H157.775V28.919H150.323ZM150.323 29.711V29.351H157.775V29.711H150.323ZM150.323 30.503V30.143H157.775V30.503H150.323ZM154.667 38.207V30.887H155.027V38.207H154.667ZM153.083 38.207V30.887H153.443V38.207H153.083ZM153.875 38.207V30.887H154.235V38.207H153.875ZM162.774 36.803C162.062 36.803 161.45 36.651 160.938 36.347C160.426 36.035 160.034 35.619 159.762 35.099C159.49 34.579 159.354 34.007 159.354 33.383C159.354 32.751 159.49 32.179 159.762 31.667C160.034 31.147 160.426 30.735 160.938 30.431C161.45 30.119 162.062 29.963 162.774 29.963C163.294 29.963 163.762 30.051 164.178 30.227C164.594 30.395 164.946 30.631 165.234 30.935L164.982 31.187C164.718 30.923 164.402 30.715 164.034 30.563C163.666 30.411 163.246 30.335 162.774 30.335C162.134 30.335 161.582 30.475 161.118 30.755C160.662 31.027 160.314 31.395 160.074 31.859C159.834 32.315 159.714 32.823 159.714 33.383C159.714 33.943 159.834 34.455 160.074 34.919C160.314 35.375 160.662 35.743 161.118 36.023C161.582 36.295 162.134 36.431 162.774 36.431C163.246 36.431 163.666 36.355 164.034 36.203C164.402 36.051 164.718 35.843 164.982 35.579L165.234 35.831C164.946 36.127 164.594 36.363 164.178 36.539C163.762 36.715 163.294 36.803 162.774 36.803ZM162.774 37.595C162.134 37.595 161.554 37.487 161.034 37.271C160.522 37.047 160.078 36.743 159.702 36.359C159.334 35.975 159.05 35.531 158.85 35.027C158.658 34.515 158.562 33.967 158.562 33.383C158.562 32.799 158.658 32.255 158.85 31.751C159.05 31.239 159.334 30.791 159.702 30.407C160.078 30.015 160.522 29.711 161.034 29.495C161.554 29.279 162.134 29.171 162.774 29.171C163.406 29.171 163.974 29.279 164.478 29.495C164.99 29.703 165.43 29.995 165.798 30.371L165.534 30.635C165.206 30.291 164.806 30.023 164.334 29.831C163.87 29.639 163.35 29.543 162.774 29.543C161.99 29.543 161.306 29.715 160.722 30.059C160.146 30.403 159.702 30.867 159.39 31.451C159.078 32.027 158.922 32.671 158.922 33.383C158.922 34.087 159.078 34.731 159.39 35.315C159.702 35.899 160.146 36.363 160.722 36.707C161.306 37.051 161.99 37.223 162.774 37.223C163.35 37.223 163.87 37.127 164.334 36.935C164.806 36.743 165.206 36.475 165.534 36.131L165.798 36.395C165.43 36.763 164.99 37.055 164.478 37.271C163.974 37.487 163.406 37.595 162.774 37.595ZM162.774 38.387C162.022 38.387 161.338 38.259 160.722 38.003C160.114 37.739 159.59 37.379 159.15 36.923C158.71 36.467 158.37 35.939 158.13 35.339C157.89 34.731 157.77 34.079 157.77 33.383C157.77 32.687 157.89 32.039 158.13 31.439C158.37 30.831 158.71 30.299 159.15 29.843C159.59 29.387 160.114 29.031 160.722 28.775C161.338 28.511 162.022 28.379 162.774 28.379C163.51 28.379 164.182 28.507 164.79 28.763C165.398 29.011 165.922 29.359 166.362 29.807L166.11 30.059C165.702 29.651 165.214 29.331 164.646 29.099C164.086 28.859 163.462 28.739 162.774 28.739C162.07 28.739 161.434 28.859 160.866 29.099C160.298 29.339 159.81 29.671 159.402 30.095C158.994 30.519 158.678 31.015 158.454 31.583C158.238 32.143 158.13 32.743 158.13 33.383C158.13 34.023 158.238 34.627 158.454 35.195C158.678 35.755 158.994 36.247 159.402 36.671C159.81 37.095 160.298 37.427 160.866 37.667C161.434 37.907 162.07 38.027 162.774 38.027C163.462 38.027 164.086 37.911 164.646 37.679C165.214 37.439 165.702 37.115 166.11 36.707L166.362 36.959C165.922 37.399 165.398 37.747 164.79 38.003C164.182 38.259 163.51 38.387 162.774 38.387ZM168.793 38.207V28.559H169.153V38.207H168.793ZM167.209 38.207V28.559H167.569V38.207H167.209ZM168.001 38.207V28.559H168.361V38.207H168.001ZM175.021 38.207V28.559H175.381V38.207H175.021ZM173.437 38.207V28.559H173.797V38.207H173.437ZM174.229 38.207V28.559H174.589V38.207H174.229ZM169.585 32.771V32.411H173.005V32.771H169.585ZM169.585 33.563V33.203H173.005V33.563H169.585ZM169.585 34.355V33.995H173.005V34.355H169.585ZM178.168 38.207V28.559H178.528V38.207H178.168ZM176.584 38.207V28.559H176.944V38.207H176.584ZM177.376 38.207V28.559H177.736V38.207H177.376ZM178.96 28.919V28.559H183.748V28.919H178.96ZM178.96 29.711V29.351H183.748V29.711H178.96ZM178.96 30.503V30.143H183.748V30.503H178.96ZM178.96 32.771V32.411H183.064V32.771H178.96ZM178.96 33.563V33.203H183.064V33.563H178.96ZM178.96 34.355V33.995H183.064V34.355H178.96ZM178.96 36.623V36.263H183.748V36.623H178.96ZM178.96 37.415V37.055H183.748V37.415H178.96ZM178.96 38.207V37.847H183.748V38.207H178.96ZM188.029 36.803C187.461 36.803 186.993 36.695 186.625 36.479C186.257 36.255 186.057 35.959 186.025 35.591L186.373 35.495C186.373 35.767 186.525 35.995 186.829 36.179C187.141 36.355 187.541 36.443 188.029 36.443C188.533 36.443 188.941 36.351 189.253 36.167C189.573 35.983 189.733 35.747 189.733 35.459C189.733 35.187 189.601 34.967 189.337 34.799C189.073 34.631 188.713 34.483 188.257 34.355L187.513 34.139C186.521 33.851 185.773 33.487 185.269 33.047C184.765 32.607 184.513 32.003 184.513 31.235C184.513 30.683 184.665 30.195 184.969 29.771C185.281 29.339 185.701 28.999 186.229 28.751C186.765 28.503 187.369 28.379 188.041 28.379C188.649 28.379 189.197 28.479 189.685 28.679C190.181 28.871 190.589 29.147 190.909 29.507C191.237 29.867 191.445 30.287 191.533 30.767L191.185 30.863C191.113 30.439 190.933 30.067 190.645 29.747C190.357 29.427 189.989 29.179 189.541 29.003C189.093 28.827 188.593 28.739 188.041 28.739C187.433 28.739 186.889 28.851 186.409 29.075C185.937 29.291 185.561 29.587 185.281 29.963C185.009 30.339 184.873 30.771 184.873 31.259C184.873 31.915 185.101 32.443 185.557 32.843C186.021 33.235 186.705 33.555 187.609 33.803L188.353 34.007C188.905 34.159 189.333 34.343 189.637 34.559C189.941 34.775 190.093 35.067 190.093 35.435C190.093 35.843 189.905 36.175 189.529 36.431C189.153 36.679 188.653 36.803 188.029 36.803ZM188.029 37.595C187.277 37.595 186.645 37.431 186.133 37.103C185.629 36.767 185.333 36.331 185.245 35.795L185.605 35.699C185.669 36.163 185.917 36.535 186.349 36.815C186.789 37.095 187.349 37.235 188.029 37.235C188.525 37.235 188.961 37.159 189.337 37.007C189.713 36.855 190.005 36.643 190.213 36.371C190.421 36.099 190.525 35.787 190.525 35.435C190.525 34.947 190.341 34.563 189.973 34.283C189.605 33.995 189.097 33.763 188.449 33.587L187.717 33.383C186.941 33.167 186.345 32.895 185.929 32.567C185.513 32.239 185.305 31.803 185.305 31.259C185.305 30.851 185.421 30.491 185.653 30.179C185.893 29.867 186.221 29.623 186.637 29.447C187.053 29.263 187.521 29.171 188.041 29.171C188.529 29.171 188.965 29.247 189.349 29.399C189.741 29.543 190.061 29.751 190.309 30.023C190.557 30.295 190.709 30.611 190.765 30.971L190.405 31.067C190.349 30.603 190.101 30.231 189.661 29.951C189.229 29.671 188.689 29.531 188.041 29.531C187.585 29.531 187.177 29.607 186.817 29.759C186.457 29.903 186.173 30.107 185.965 30.371C185.765 30.627 185.665 30.923 185.665 31.259C185.665 31.715 185.845 32.075 186.205 32.339C186.573 32.603 187.105 32.835 187.801 33.035L188.521 33.239C189.265 33.447 189.845 33.723 190.261 34.067C190.677 34.403 190.885 34.859 190.885 35.435C190.885 35.859 190.765 36.235 190.525 36.563C190.285 36.883 189.949 37.135 189.517 37.319C189.093 37.503 188.597 37.595 188.029 37.595ZM188.029 38.387C187.405 38.387 186.841 38.291 186.337 38.099C185.841 37.899 185.429 37.623 185.101 37.271C184.781 36.911 184.573 36.487 184.477 35.999L184.825 35.903C184.905 36.335 185.085 36.711 185.365 37.031C185.653 37.343 186.025 37.587 186.481 37.763C186.937 37.939 187.453 38.027 188.029 38.027C188.685 38.027 189.257 37.919 189.745 37.703C190.241 37.479 190.625 37.175 190.897 36.791C191.177 36.399 191.317 35.947 191.317 35.435C191.317 34.755 191.081 34.211 190.609 33.803C190.137 33.395 189.473 33.067 188.617 32.819L187.909 32.615C187.325 32.447 186.877 32.263 186.565 32.063C186.253 31.863 186.097 31.595 186.097 31.259C186.097 30.867 186.281 30.555 186.649 30.323C187.017 30.083 187.481 29.963 188.041 29.963C188.585 29.963 189.033 30.075 189.385 30.299C189.737 30.523 189.937 30.815 189.985 31.175L189.637 31.271C189.621 30.991 189.465 30.763 189.169 30.587C188.881 30.411 188.505 30.323 188.041 30.323C187.601 30.323 187.225 30.407 186.913 30.575C186.609 30.743 186.457 30.963 186.457 31.235C186.457 31.483 186.597 31.683 186.877 31.835C187.165 31.987 187.541 32.131 188.005 32.267L188.689 32.471C189.657 32.759 190.397 33.135 190.909 33.599C191.421 34.055 191.677 34.675 191.677 35.459C191.677 36.027 191.521 36.535 191.209 36.983C190.905 37.423 190.477 37.767 189.925 38.015C189.381 38.263 188.749 38.387 188.029 38.387Z" fill="black"/>
</svg>
